<?xml version="1.0" encoding="UTF-8" standalone="no"?><!DOCTYPE svg PUBLIC "-//W3C//DTD SVG 1.1//EN" "http://www.w3.org/Graphics/SVG/1.1/DTD/svg11.dtd"><svg width="100%" height="100%" viewBox="0 0 21 21" version="1.1" xmlns="http://www.w3.org/2000/svg" xmlns:xlink="http://www.w3.org/1999/xlink" xml:space="preserve" xmlns:serif="http://www.serif.com/" style="fill-rule:evenodd;clip-rule:evenodd;stroke-linejoin:round;stroke-miterlimit:2;"><g id="etherscan-logo-light-circle"><path id="Path_1" d="M4.356,9.997c-0,-0 -0,-0 -0,-0c-0,-0.489 0.402,-0.891 0.89,-0.891c0.002,0 0.003,0 0.004,0l1.484,0.005c0.489,0 0.891,0.403 0.891,0.892l0,5.608c0.167,-0.05 0.382,-0.102 0.616,-0.157c0.335,-0.079 0.573,-0.38 0.573,-0.724l0,-6.956c0,-0.489 0.403,-0.892 0.892,-0.892l1.486,0c0.489,0 0.891,0.403 0.891,0.892l0,6.457c0,-0 0.372,-0.151 0.735,-0.304c0.275,-0.116 0.454,-0.387 0.454,-0.685l0,-7.697c0,-0.001 0,-0.001 0,-0.001c0,-0.489 0.403,-0.891 0.892,-0.891l1.486,-0c0.489,-0 0.892,0.402 0.892,0.892l-0,6.338c1.288,-0.934 2.594,-2.057 3.63,-3.407c0.305,-0.398 0.391,-0.923 0.228,-1.397c-1.433,-4.177 -5.358,-7.021 -9.773,-7.081c-5.825,-0.079 -10.638,4.676 -10.638,10.501c-0.005,1.843 0.476,3.656 1.395,5.253c0.258,0.446 0.753,0.702 1.266,0.656c0.281,-0.024 0.632,-0.059 1.048,-0.108c0.373,-0.043 0.658,-0.362 0.658,-0.737l0,-5.566" style="fill:#fff;fill-rule:nonzero;"/><path id="Path_2" d="M4.324,18.991c1.794,1.305 3.957,2.009 6.176,2.009c5.76,0 10.5,-4.74 10.5,-10.5c0,-0 -0,-0.001 -0,-0.001c-0,-0.242 -0.011,-0.481 -0.027,-0.719c-3.837,5.722 -10.92,8.397 -16.65,9.211" style="fill:#bfcfda;fill-rule:nonzero;"/></g></svg>